<?xml version="1.0" encoding="UTF-8" standalone="no"?>
<!-- Created with Inkscape (http://www.inkscape.org/) -->

<svg
   width="999.99988"
   height="266.62509"
   viewBox="0 0 999.99988 266.62509"
   version="1.1"
   id="svg1"
   xml:space="preserve"
   inkscape:version="1.4.2 (f4327f4, 2025-05-13)"
   sodipodi:docname="RCTI_Logo.svg"
   xmlns:inkscape="http://www.inkscape.org/namespaces/inkscape"
   xmlns:sodipodi="http://sodipodi.sourceforge.net/DTD/sodipodi-0.dtd"
   xmlns="http://www.w3.org/2000/svg"
   xmlns:svg="http://www.w3.org/2000/svg"><sodipodi:namedview
     id="namedview1"
     pagecolor="#ffffff"
     bordercolor="#000000"
     borderopacity="0.25"
     inkscape:showpageshadow="2"
     inkscape:pageopacity="0.0"
     inkscape:pagecheckerboard="0"
     inkscape:deskcolor="#d1d1d1"
     inkscape:document-units="px"
     inkscape:zoom="0.70710678"
     inkscape:cx="478.00418"
     inkscape:cy="115.25841"
     inkscape:window-width="1366"
     inkscape:window-height="705"
     inkscape:window-x="-8"
     inkscape:window-y="-8"
     inkscape:window-maximized="1"
     inkscape:current-layer="svg1"
     showguides="true" /><defs
     id="defs1"><inkscape:path-effect
       effect="spiro"
       id="path-effect30"
       is_visible="true"
       lpeversion="1" /><style
       type="text/css"
       id="style1">
   <![CDATA[
    .fil0 {fill:#0D5BA5}
    .fil1 {fill:#F32421}
   ]]>
  </style></defs><g
     style="clip-rule:evenodd;fill-rule:evenodd;image-rendering:optimizeQuality;shape-rendering:geometricPrecision;text-rendering:geometricPrecision"
     id="g1"
     transform="matrix(0.03869194,0,0,0.03869194,0.03541002,0)"><path
       d="M 2782.6557,0 -0.91517815,6890.9727 H 4910.7571 c -861.7399,-574.4812 -1503.4897,-1590.845 -1503.4897,-2995.796 0,-1161.1649 417.2865,-2522.3631 417.2535,-3018.31796 C 3824.482,285.8421 3620.1134,-1.2739825e-5 3100.8121,0 Z m 1741.6022,0 c 131.8757,184.12214 217.6096,385.52339 217.6096,776.98507 0,217.61856 -42.4177,411.45683 -101.8411,544.67133 658.4689,-225.7196 1190.4081,-313.7555 1643.2817,-313.7555 832.2743,0 1384.5388,78.7434 1652.0317,504.0798 227.9991,147.9994 454.1862,296.0216 682.1853,444.0211 312.129,0 614.5158,317.3058 614.5157,620.0037 0,183.6936 -10.0162,283.9803 -34.0161,436.9797 -157.086,-149.8359 -402.9167,-278.9629 -709.0047,-278.9629 -1179.8323,0 -2795.7586,525.419 -4131.9949,1479.4144 227.8037,1169.2668 886.4561,2120.8058 1848.4137,2677.536 h 2791.5959 c -899.9966,-592.9977 -1913,-1567.9796 -2146.9991,-2685.9753 719.8105,0 1318.6519,-179.1614 1748.3846,-510.034 85.7722,2002.4627 1851.1298,3196.0093 3258.6048,3196.0093 h 2538.987 l 736.031,-1821.9567 h -2686.027 c -1053.428,0 -1546.952,-761.1773 -1547.136,-1526.6848 -0.197,-819.6965 555.275,-1586.3294 1574.162,-1586.3294 H 15134.01 L 15924.043,0 H 12045.02 C 10900.48,0 9902.4053,611.12585 9278.2757,1482.5726 9029.9526,345.28916 8039.0679,0 6727.1221,0 Z M 16607.056,0 15816.04,1956.0018 h 2386.717 l -1995.713,4934.9709 h 2127.014 l 1995.61,-4934.9709 h 1912.303 L 23032.988,0 Z m 7110.498,0 -2786.677,6890.9727 h 2126.704 L 25844.258,0 Z"
       style="display:inline;fill:#0d5ba5;stroke-width:0.999851"
       id="path1"
       sodipodi:nodetypes="cccsssccscsccscscccccsccsssccscsccccccccccccccc" /><path
       d="m 6761.0864,1511.9807 c 188.2141,315.885 494.7178,444.0211 849.9876,444.0211 h 7522.004 l 180.332,-444.0211 z m 9234.5606,0 -179.555,444.0211 h 6425.983 l 180.332,-444.0211 z m 7110.602,0 -179.555,444.0211 h 2126.651 l 179.556,-444.0211 z"
       style="display:inline;fill:#f32421"
       id="path2" /></g></svg>
